<svg id="Capa_1" enable-background="new 0 0 511.8 511.8" height="512" viewBox="0 0 511.8 511.8" width="512" xmlns="http://www.w3.org/2000/svg"><g><g><path d="m465.226 317.494h-418.652c-21.58 0-39.074-17.494-39.074-39.075v-85.662c0-21.58 17.494-39.074 39.074-39.074h418.651c21.58 0 39.074 17.494 39.074 39.074v85.662c.001 21.581-17.493 39.075-39.073 39.075z" fill="#756e78"/><path d="m504.5 230.536v47.881c0 21.581-17.493 39.074-39.074 39.074h-418.652c-21.581 0-39.074-17.493-39.074-39.074v-47.881c0 21.581 17.493 39.074 39.074 39.074h418.651c21.582.001 39.075-17.492 39.075-39.074z" fill="#665e66"/><path d="m380.313 448.931h-248.826c-47.004 0-85.108-38.104-85.108-85.108v-215.846c0-47.004 38.104-85.108 85.108-85.108h248.826c47.004 0 85.108 38.104 85.108 85.108v215.846c0 47.004-38.104 85.108-85.108 85.108z" fill="#f9f6f9"/><path d="m173.468 448.926-41.981.005c-47.001 0-85.108-38.11-85.108-85.111v-215.843c0-47.011 38.105-85.106 85.106-85.106h41.983c-47.001 0-85.106 38.095-85.106 85.106v215.843c0 47.001 38.105 85.106 85.106 85.106z" fill="#dddaec"/><path d="m359.568 357.278h-207.336c-34.877 0-63.15-28.273-63.15-63.15v-130.295c0-34.877 28.273-63.15 63.15-63.15h207.337c34.877 0 63.15 28.273 63.15 63.15v130.294c0 34.877-28.274 63.151-63.151 63.151z" fill="#b1e4f9"/><path d="m194.209 357.275h-41.973c-34.886 0-63.155-28.269-63.155-63.145v-130.297c0-34.876 28.269-63.155 63.155-63.155h41.973c-34.876 0-63.145 28.279-63.145 63.155v130.297c0 34.876 28.269 63.145 63.145 63.145z" fill="#90d8f9"/><g fill="#f9ef63"><path d="m179.129 223.165c-9.556 0-17.303-7.747-17.303-17.303v-34.872c0-9.556 7.747-17.303 17.303-17.303 9.556 0 17.303 7.747 17.303 17.303v34.872c0 9.557-7.747 17.303-17.303 17.303z"/><path d="m332.671 223.165c-9.556 0-17.303-7.747-17.303-17.303v-34.872c0-9.556 7.747-17.303 17.303-17.303 9.556 0 17.303 7.747 17.303 17.303v34.872c0 9.557-7.747 17.303-17.303 17.303z"/></g></g><g><path d="m472.905 146.831c-.619-50.537-41.915-91.46-92.596-91.46h-248.819c-50.681 0-91.977 40.923-92.596 91.46-22.023 3.684-38.894 22.913-38.894 45.93v85.656c0 23.012 16.864 42.237 38.88 45.928v39.475c0 51.065 41.545 92.61 92.61 92.61h248.82c21.549 0 42.541-7.571 59.109-21.318 3.188-2.645 3.628-7.373.982-10.561-2.644-3.188-7.372-3.627-10.561-.983-13.883 11.519-31.473 17.862-49.531 17.862h-248.819c-42.795 0-77.61-34.815-77.61-77.61v-215.84c0-42.794 34.815-77.61 77.61-77.61h248.82c42.795 0 77.61 34.815 77.61 77.61v215.84c0 13.691-3.608 27.144-10.437 38.904-2.079 3.582-.861 8.172 2.721 10.252 3.582 2.078 8.172.861 10.252-2.721 8.154-14.045 12.464-30.102 12.464-46.436v-39.475c22.016-3.691 38.88-22.916 38.88-45.928v-85.656c0-23.016-16.871-42.245-38.895-45.929zm-457.905 131.586v-85.656c0-14.725 10.186-27.163 23.88-30.616v146.889c-13.694-3.454-23.88-15.892-23.88-30.617zm481.8 0c0 14.725-10.186 27.163-23.88 30.616v-146.888c13.694 3.454 23.88 15.891 23.88 30.616z"/><path d="m430.22 294.13v-130.3c0-38.957-31.693-70.65-70.649-70.65h-192.341c-4.143 0-7.5 3.358-7.5 7.5s3.357 7.5 7.5 7.5h192.34c30.686 0 55.649 24.965 55.649 55.65v130.3c0 30.686-24.964 55.65-55.649 55.65h-207.34c-30.686 0-55.65-24.964-55.65-55.65v-130.3c0-25.801 17.485-48.043 42.521-54.09 4.026-.973 6.502-5.025 5.529-9.051-.972-4.027-5.023-6.5-9.051-5.53-31.794 7.679-53.999 35.918-53.999 68.671v130.3c0 38.957 31.693 70.65 70.65 70.65h207.34c38.956 0 70.65-31.694 70.65-70.65z"/><path d="m298.014 247.517c0-4.142-3.357-7.5-7.5-7.5s-7.5 3.358-7.5 7.5c0 14.951-12.163 27.114-27.113 27.114-14.951 0-27.114-12.163-27.114-27.114 0-4.142-3.357-7.5-7.5-7.5s-7.5 3.358-7.5 7.5c0 23.222 18.893 42.114 42.114 42.114s42.113-18.893 42.113-42.114z"/><path d="m203.933 205.862v-34.872c0-13.677-11.127-24.803-24.804-24.803s-24.803 11.126-24.803 24.803v34.872c0 13.677 11.126 24.803 24.803 24.803s24.804-11.126 24.804-24.803zm-34.607 0v-34.872c0-5.406 4.397-9.803 9.803-9.803s9.804 4.397 9.804 9.803v34.872c0 5.406-4.397 9.803-9.804 9.803-5.405.001-9.803-4.397-9.803-9.803z"/><path d="m357.474 205.862v-34.872c0-13.677-11.126-24.803-24.803-24.803s-24.803 11.126-24.803 24.803v34.872c0 13.677 11.126 24.803 24.803 24.803s24.803-11.126 24.803-24.803zm-34.606 0v-34.872c0-5.406 4.397-9.803 9.803-9.803s9.803 4.397 9.803 9.803v34.872c0 5.406-4.397 9.803-9.803 9.803s-9.803-4.397-9.803-9.803z"/><path d="m387.769 385.14v33.415c0 4.142 3.357 7.5 7.5 7.5s7.5-3.358 7.5-7.5v-33.415c0-4.142-3.357-7.5-7.5-7.5s-7.5 3.358-7.5 7.5z"/><path d="m332.656 385.14v33.415c0 4.142 3.357 7.5 7.5 7.5s7.5-3.358 7.5-7.5v-33.415c0-4.142-3.357-7.5-7.5-7.5s-7.5 3.358-7.5 7.5z"/><path d="m360.213 385.14v33.415c0 4.142 3.357 7.5 7.5 7.5s7.5-3.358 7.5-7.5v-33.415c0-4.142-3.357-7.5-7.5-7.5s-7.5 3.358-7.5 7.5z"/><path d="m164.144 385.14v33.415c0 4.142 3.357 7.5 7.5 7.5s7.5-3.358 7.5-7.5v-33.415c0-4.142-3.357-7.5-7.5-7.5s-7.5 3.358-7.5 7.5z"/><path d="m109.031 385.14v33.415c0 4.142 3.357 7.5 7.5 7.5s7.5-3.358 7.5-7.5v-33.415c0-4.142-3.357-7.5-7.5-7.5s-7.5 3.358-7.5 7.5z"/><path d="m136.588 385.14v33.415c0 4.142 3.357 7.5 7.5 7.5s7.5-3.358 7.5-7.5v-33.415c0-4.142-3.357-7.5-7.5-7.5s-7.5 3.358-7.5 7.5z"/></g></g></svg>